<mxfile host="Electron" modified="2023-10-31T11:23:36.030Z" agent="Mozilla/5.0 (Windows NT 10.0; Win64; x64) AppleWebKit/537.36 (KHTML, like Gecko) draw.io/21.6.8 Chrome/114.0.5735.289 Electron/25.5.0 Safari/537.36" etag="My0aWdSBJgvWi8zpHZNg" version="21.6.8" type="device">
  <diagram name="Page-1" id="nbp7fHAmJaLCSISeNxbz">
    <mxGraphModel dx="546" dy="852" grid="1" gridSize="10" guides="1" tooltips="1" connect="1" arrows="1" fold="1" page="1" pageScale="1" pageWidth="2336" pageHeight="1654" math="0" shadow="0">
      <root>
        <mxCell id="0" />
        <mxCell id="1" parent="0" />
        <mxCell id="ifhNIGm1ohgApcvOqlta-1" value="&lt;p style=&quot;margin:0px;margin-top:4px;margin-left:10px;text-align:left;&quot;&gt;&lt;b&gt;AD &lt;/b&gt;GameLeader_UC052&lt;/p&gt;" style="html=1;shape=mxgraph.sysml.package;html=1;overflow=fill;whiteSpace=wrap;labelX=154;" vertex="1" parent="1">
          <mxGeometry x="150" y="250" width="440" height="450" as="geometry" />
        </mxCell>
        <mxCell id="ifhNIGm1ohgApcvOqlta-2" style="edgeStyle=orthogonalEdgeStyle;rounded=0;orthogonalLoop=1;jettySize=auto;html=1;" edge="1" parent="1" source="ifhNIGm1ohgApcvOqlta-3" target="ifhNIGm1ohgApcvOqlta-5">
          <mxGeometry relative="1" as="geometry" />
        </mxCell>
        <mxCell id="ifhNIGm1ohgApcvOqlta-3" value="" style="shape=ellipse;html=1;fillColor=strokeColor;strokeWidth=2;verticalLabelPosition=bottom;verticalAlignment=top;perimeter=ellipsePerimeter;" vertex="1" parent="1">
          <mxGeometry x="235" y="300" width="40" height="40" as="geometry" />
        </mxCell>
        <mxCell id="ifhNIGm1ohgApcvOqlta-20" style="edgeStyle=orthogonalEdgeStyle;rounded=0;orthogonalLoop=1;jettySize=auto;html=1;" edge="1" parent="1" source="ifhNIGm1ohgApcvOqlta-5" target="ifhNIGm1ohgApcvOqlta-19">
          <mxGeometry relative="1" as="geometry" />
        </mxCell>
        <mxCell id="ifhNIGm1ohgApcvOqlta-5" value="Start UC052" style="html=1;shape=mxgraph.sysml.accEvent;strokeWidth=2;whiteSpace=wrap;align=center;" vertex="1" parent="1">
          <mxGeometry x="200" y="390" width="110" height="60" as="geometry" />
        </mxCell>
        <mxCell id="ifhNIGm1ohgApcvOqlta-6" style="edgeStyle=orthogonalEdgeStyle;rounded=0;orthogonalLoop=1;jettySize=auto;html=1;" edge="1" parent="1" source="ifhNIGm1ohgApcvOqlta-7" target="ifhNIGm1ohgApcvOqlta-5">
          <mxGeometry relative="1" as="geometry" />
        </mxCell>
        <mxCell id="ifhNIGm1ohgApcvOqlta-7" value="Start UC06" style="html=1;shape=mxgraph.sysml.sendSigAct;strokeWidth=2;whiteSpace=wrap;align=center;" vertex="1" parent="1">
          <mxGeometry x="470" y="390" width="100" height="60" as="geometry" />
        </mxCell>
        <mxCell id="ifhNIGm1ohgApcvOqlta-15" style="edgeStyle=orthogonalEdgeStyle;rounded=0;orthogonalLoop=1;jettySize=auto;html=1;" edge="1" parent="1" source="ifhNIGm1ohgApcvOqlta-13" target="ifhNIGm1ohgApcvOqlta-7">
          <mxGeometry relative="1" as="geometry" />
        </mxCell>
        <mxCell id="ifhNIGm1ohgApcvOqlta-13" value="GameOver&lt;br&gt;UC051" style="html=1;shape=mxgraph.sysml.accEvent;strokeWidth=2;whiteSpace=wrap;align=center;" vertex="1" parent="1">
          <mxGeometry x="465" y="290" width="110" height="60" as="geometry" />
        </mxCell>
        <mxCell id="ifhNIGm1ohgApcvOqlta-22" style="edgeStyle=orthogonalEdgeStyle;rounded=0;orthogonalLoop=1;jettySize=auto;html=1;" edge="1" parent="1" source="ifhNIGm1ohgApcvOqlta-19" target="ifhNIGm1ohgApcvOqlta-21">
          <mxGeometry relative="1" as="geometry" />
        </mxCell>
        <mxCell id="ifhNIGm1ohgApcvOqlta-19" value="Receive Player Game Over&lt;br&gt;Set Player Status accordingly" style="shape=rect;html=1;rounded=1;whiteSpace=wrap;align=center;" vertex="1" parent="1">
          <mxGeometry x="170" y="500" width="170" height="80" as="geometry" />
        </mxCell>
        <mxCell id="ifhNIGm1ohgApcvOqlta-24" style="edgeStyle=orthogonalEdgeStyle;rounded=0;orthogonalLoop=1;jettySize=auto;html=1;" edge="1" parent="1" source="ifhNIGm1ohgApcvOqlta-21" target="ifhNIGm1ohgApcvOqlta-23">
          <mxGeometry relative="1" as="geometry" />
        </mxCell>
        <mxCell id="ifhNIGm1ohgApcvOqlta-21" value="Display Player Status" style="shape=rect;html=1;rounded=1;whiteSpace=wrap;align=center;" vertex="1" parent="1">
          <mxGeometry x="200" y="620" width="110" height="60" as="geometry" />
        </mxCell>
        <mxCell id="ifhNIGm1ohgApcvOqlta-25" value="[One player left]" style="edgeStyle=orthogonalEdgeStyle;rounded=0;orthogonalLoop=1;jettySize=auto;html=1;" edge="1" parent="1" source="ifhNIGm1ohgApcvOqlta-23" target="ifhNIGm1ohgApcvOqlta-7">
          <mxGeometry x="-0.7778" y="20" relative="1" as="geometry">
            <Array as="points">
              <mxPoint x="520" y="650" />
            </Array>
            <mxPoint as="offset" />
          </mxGeometry>
        </mxCell>
        <mxCell id="ifhNIGm1ohgApcvOqlta-26" value="[else]" style="edgeStyle=orthogonalEdgeStyle;rounded=0;orthogonalLoop=1;jettySize=auto;html=1;" edge="1" parent="1" source="ifhNIGm1ohgApcvOqlta-23" target="ifhNIGm1ohgApcvOqlta-19">
          <mxGeometry x="-0.5623" y="25" relative="1" as="geometry">
            <Array as="points">
              <mxPoint x="415" y="540" />
            </Array>
            <mxPoint as="offset" />
          </mxGeometry>
        </mxCell>
        <mxCell id="ifhNIGm1ohgApcvOqlta-23" value="" style="rhombus;whiteSpace=wrap;html=1;" vertex="1" parent="1">
          <mxGeometry x="390" y="625" width="50" height="50" as="geometry" />
        </mxCell>
      </root>
    </mxGraphModel>
  </diagram>
</mxfile>
